<svg xmlns="http://www.w3.org/2000/svg" xmlns:xlink="http://www.w3.org/1999/xlink" width="82" zoomAndPan="magnify" viewBox="0 0 61.5 60" height="80" preserveAspectRatio="xMidYMid meet" version="1.0"><defs><clipPath id="id1"><path d="M 13 20.472656 L 48 20.472656 L 48 33 L 13 33 Z M 13 20.472656 " clip-rule="nonzero"/></clipPath><clipPath id="id2"><path d="M 11.625 34 L 49.875 34 L 49.875 42.972656 L 11.625 42.972656 Z M 11.625 34 " clip-rule="nonzero"/></clipPath></defs><g clip-path="url(#id1)"><path fill="#252f3e" d="M 22.523438 28.640625 C 22.523438 29.105469 22.574219 29.480469 22.664062 29.753906 C 22.761719 30.03125 22.886719 30.332031 23.0625 30.65625 C 23.125 30.757812 23.148438 30.855469 23.148438 30.945312 C 23.148438 31.070312 23.074219 31.195312 22.910156 31.320312 L 22.125 31.84375 C 22.015625 31.921875 21.902344 31.957031 21.804688 31.957031 C 21.679688 31.957031 21.554688 31.894531 21.429688 31.78125 C 21.253906 31.59375 21.105469 31.394531 20.980469 31.195312 C 20.855469 30.980469 20.730469 30.742188 20.59375 30.457031 C 19.621094 31.605469 18.402344 32.183594 16.933594 32.183594 C 15.886719 32.183594 15.050781 31.882812 14.441406 31.28125 C 13.832031 30.679688 13.519531 29.878906 13.519531 28.878906 C 13.519531 27.816406 13.894531 26.953125 14.652344 26.300781 C 15.414062 25.648438 16.421875 25.324219 17.703125 25.324219 C 18.128906 25.324219 18.5625 25.363281 19.023438 25.425781 C 19.484375 25.488281 19.960938 25.585938 20.457031 25.699219 L 20.457031 24.785156 C 20.457031 23.835938 20.257812 23.171875 19.871094 22.785156 C 19.472656 22.394531 18.800781 22.207031 17.839844 22.207031 C 17.40625 22.207031 16.957031 22.257812 16.496094 22.371094 C 16.035156 22.484375 15.585938 22.621094 15.152344 22.796875 C 14.953125 22.882812 14.800781 22.933594 14.714844 22.960938 C 14.628906 22.984375 14.566406 22.996094 14.515625 22.996094 C 14.339844 22.996094 14.253906 22.871094 14.253906 22.609375 L 14.253906 21.996094 C 14.253906 21.796875 14.277344 21.644531 14.339844 21.558594 C 14.402344 21.46875 14.515625 21.382812 14.691406 21.292969 C 15.125 21.070312 15.648438 20.882812 16.261719 20.730469 C 16.871094 20.570312 17.519531 20.492188 18.203125 20.492188 C 19.683594 20.492188 20.769531 20.832031 21.464844 21.507812 C 22.152344 22.183594 22.5 23.210938 22.5 24.585938 L 22.5 28.640625 Z M 17.46875 30.542969 C 17.878906 30.542969 18.300781 30.46875 18.75 30.316406 C 19.199219 30.167969 19.597656 29.890625 19.933594 29.515625 C 20.132812 29.28125 20.28125 29.015625 20.359375 28.714844 C 20.433594 28.414062 20.484375 28.054688 20.484375 27.628906 L 20.484375 27.101562 C 20.121094 27.015625 19.734375 26.9375 19.335938 26.890625 C 18.9375 26.839844 18.550781 26.8125 18.164062 26.8125 C 17.332031 26.8125 16.71875 26.976562 16.308594 27.316406 C 15.898438 27.652344 15.699219 28.128906 15.699219 28.753906 C 15.699219 29.34375 15.847656 29.78125 16.160156 30.082031 C 16.460938 30.394531 16.894531 30.542969 17.46875 30.542969 Z M 27.472656 31.894531 C 27.246094 31.894531 27.097656 31.859375 26.996094 31.769531 C 26.898438 31.695312 26.808594 31.519531 26.734375 31.28125 L 23.808594 21.609375 C 23.734375 21.355469 23.695312 21.195312 23.695312 21.105469 C 23.695312 20.90625 23.796875 20.792969 23.996094 20.792969 L 25.214844 20.792969 C 25.453125 20.792969 25.613281 20.832031 25.703125 20.917969 C 25.800781 20.996094 25.875 21.167969 25.949219 21.40625 L 28.042969 29.691406 L 29.988281 21.40625 C 30.046875 21.15625 30.125 20.996094 30.222656 20.917969 C 30.324219 20.84375 30.496094 20.792969 30.722656 20.792969 L 31.71875 20.792969 C 31.953125 20.792969 32.117188 20.832031 32.214844 20.917969 C 32.316406 20.996094 32.402344 21.167969 32.453125 21.40625 L 34.421875 29.792969 L 36.574219 21.40625 C 36.652344 21.15625 36.738281 20.996094 36.824219 20.917969 C 36.925781 20.84375 37.085938 20.792969 37.3125 20.792969 L 38.46875 20.792969 C 38.667969 20.792969 38.78125 20.894531 38.78125 21.105469 C 38.78125 21.167969 38.769531 21.230469 38.757812 21.308594 C 38.742188 21.382812 38.71875 21.484375 38.667969 21.621094 L 35.667969 31.292969 C 35.589844 31.542969 35.503906 31.707031 35.40625 31.78125 C 35.304688 31.859375 35.144531 31.90625 34.929688 31.90625 L 33.859375 31.90625 C 33.625 31.90625 33.460938 31.871094 33.363281 31.78125 C 33.261719 31.695312 33.175781 31.53125 33.125 31.28125 L 31.195312 23.210938 L 29.277344 31.269531 C 29.214844 31.519531 29.140625 31.683594 29.039062 31.769531 C 28.941406 31.859375 28.765625 31.894531 28.542969 31.894531 Z M 43.476562 32.234375 C 42.828125 32.234375 42.183594 32.15625 41.558594 32.007812 C 40.9375 31.859375 40.449219 31.695312 40.125 31.507812 C 39.925781 31.394531 39.789062 31.269531 39.738281 31.15625 C 39.691406 31.042969 39.664062 30.917969 39.664062 30.804688 L 39.664062 30.167969 C 39.664062 29.90625 39.765625 29.78125 39.953125 29.78125 C 40.027344 29.78125 40.101562 29.792969 40.175781 29.816406 C 40.25 29.84375 40.363281 29.890625 40.488281 29.941406 C 40.910156 30.128906 41.371094 30.28125 41.855469 30.378906 C 42.355469 30.480469 42.839844 30.53125 43.339844 30.53125 C 44.125 30.53125 44.734375 30.394531 45.160156 30.117188 C 45.582031 29.84375 45.804688 29.441406 45.804688 28.929688 C 45.804688 28.578125 45.695312 28.289062 45.46875 28.054688 C 45.246094 27.816406 44.824219 27.601562 44.210938 27.402344 L 42.40625 26.839844 C 41.496094 26.550781 40.824219 26.125 40.414062 25.5625 C 40 25.011719 39.789062 24.398438 39.789062 23.746094 C 39.789062 23.222656 39.902344 22.757812 40.125 22.359375 C 40.351562 21.957031 40.648438 21.609375 41.023438 21.332031 C 41.398438 21.042969 41.820312 20.832031 42.320312 20.679688 C 42.816406 20.53125 43.339844 20.46875 43.886719 20.46875 C 44.160156 20.46875 44.449219 20.480469 44.722656 20.519531 C 45.007812 20.554688 45.269531 20.605469 45.53125 20.65625 C 45.78125 20.71875 46.015625 20.78125 46.242188 20.855469 C 46.46875 20.933594 46.640625 21.007812 46.765625 21.082031 C 46.941406 21.183594 47.066406 21.28125 47.136719 21.394531 C 47.214844 21.496094 47.25 21.632812 47.25 21.808594 L 47.25 22.394531 C 47.25 22.660156 47.152344 22.796875 46.964844 22.796875 C 46.863281 22.796875 46.703125 22.746094 46.492188 22.644531 C 45.78125 22.320312 44.984375 22.160156 44.097656 22.160156 C 43.390625 22.160156 42.828125 22.269531 42.445312 22.507812 C 42.058594 22.746094 41.855469 23.109375 41.855469 23.621094 C 41.855469 23.972656 41.980469 24.273438 42.230469 24.511719 C 42.480469 24.75 42.941406 24.988281 43.601562 25.199219 L 45.371094 25.761719 C 46.265625 26.050781 46.914062 26.449219 47.300781 26.964844 C 47.6875 27.476562 47.875 28.066406 47.875 28.714844 C 47.875 29.253906 47.761719 29.742188 47.550781 30.167969 C 47.328125 30.59375 47.027344 30.96875 46.640625 31.269531 C 46.253906 31.582031 45.792969 31.808594 45.257812 31.96875 C 44.699219 32.144531 44.113281 32.234375 43.476562 32.234375 Z M 43.476562 32.234375 " fill-opacity="1" fill-rule="nonzero"/></g><g clip-path="url(#id2)"><path fill="#ff9900" d="M 45.832031 38.316406 C 41.730469 41.355469 35.78125 42.972656 30.660156 42.972656 C 23.484375 42.972656 17.019531 40.304688 12.136719 35.875 C 11.75 35.523438 12.097656 35.046875 12.558594 35.324219 C 17.839844 38.402344 24.355469 40.269531 31.09375 40.269531 C 35.640625 40.269531 40.636719 39.316406 45.230469 37.363281 C 45.917969 37.050781 46.503906 37.8125 45.832031 38.316406 Z M 47.539062 36.363281 C 47.015625 35.6875 44.074219 36.039062 42.742188 36.199219 C 42.34375 36.25 42.28125 35.898438 42.640625 35.636719 C 44.984375 33.984375 48.832031 34.460938 49.28125 35.011719 C 49.730469 35.574219 49.15625 39.441406 46.964844 41.292969 C 46.628906 41.582031 46.304688 41.429688 46.453125 41.054688 C 46.953125 39.816406 48.0625 37.027344 47.539062 36.363281 Z M 47.539062 36.363281 " fill-opacity="1" fill-rule="nonzero"/></g></svg>