<svg xmlns="http://www.w3.org/2000/svg" xmlns:xlink="http://www.w3.org/1999/xlink" width="82" zoomAndPan="magnify" viewBox="0 0 61.5 60" height="80" preserveAspectRatio="xMidYMid meet" version="1.0"><defs><clipPath id="id1"><path d="M 25 20.679688 L 35 20.679688 L 35 25 L 25 25 Z M 25 20.679688 " clip-rule="nonzero"/></clipPath><clipPath id="id2"><path d="M 10.519531 32 L 51.019531 32 L 51.019531 40.179688 L 10.519531 40.179688 Z M 10.519531 32 " clip-rule="nonzero"/></clipPath></defs><g clip-path="url(#id1)"><path fill="#ea4335" d="M 32.554688 23.625 L 32.96875 23.628906 L 34.097656 22.484375 L 34.152344 21.996094 C 33.253906 21.183594 32.078125 20.691406 30.789062 20.691406 C 28.453125 20.691406 26.480469 22.308594 25.898438 24.5 C 26.019531 24.414062 26.28125 24.480469 26.28125 24.480469 L 28.535156 24.101562 C 28.535156 24.101562 28.652344 23.90625 28.710938 23.917969 C 28.953125 23.648438 29.234375 23.433594 29.554688 23.273438 C 29.878906 23.117188 30.21875 23.023438 30.574219 22.996094 C 30.933594 22.96875 31.28125 23.007812 31.625 23.117188 C 31.964844 23.226562 32.277344 23.394531 32.554688 23.625 Z M 32.554688 23.625 " fill-opacity="1" fill-rule="nonzero"/></g><path fill="#4285f4" d="M 35.683594 24.507812 C 35.421875 23.515625 34.910156 22.679688 34.15625 21.996094 L 32.558594 23.621094 C 32.890625 23.894531 33.148438 24.226562 33.332031 24.617188 C 33.515625 25.007812 33.609375 25.417969 33.609375 25.851562 L 33.609375 26.140625 C 34.386719 26.140625 35.015625 26.78125 35.015625 27.570312 C 35.015625 28.359375 34.382812 29.003906 33.609375 29.003906 L 30.792969 29.003906 L 30.511719 29.292969 L 30.511719 31.011719 L 30.792969 31.300781 L 33.609375 31.300781 C 34.09375 31.296875 34.558594 31.203125 35.007812 31.011719 C 35.457031 30.824219 35.851562 30.554688 36.191406 30.203125 C 36.535156 29.855469 36.800781 29.453125 36.984375 28.996094 C 37.171875 28.539062 37.265625 28.066406 37.265625 27.574219 C 37.265625 26.304688 36.636719 25.179688 35.679688 24.507812 Z M 35.683594 24.507812 " fill-opacity="1" fill-rule="nonzero"/><path fill="#34a853" d="M 27.972656 31.300781 L 30.785156 31.300781 L 30.785156 29.007812 L 27.972656 29.007812 C 27.769531 29.007812 27.578125 28.964844 27.394531 28.878906 L 26.988281 29.003906 L 25.859375 30.152344 L 25.761719 30.542969 C 26.414062 31.050781 27.152344 31.304688 27.972656 31.300781 Z M 27.972656 31.300781 " fill-opacity="1" fill-rule="nonzero"/><path fill="#fbbc05" d="M 27.972656 23.847656 C 27.488281 23.847656 27.019531 23.941406 26.574219 24.132812 C 26.125 24.320312 25.730469 24.589844 25.386719 24.941406 C 25.042969 25.289062 24.777344 25.691406 24.59375 26.148438 C 24.40625 26.605469 24.3125 27.078125 24.3125 27.574219 C 24.3125 28.15625 24.441406 28.710938 24.695312 29.230469 C 24.949219 29.753906 25.304688 30.191406 25.761719 30.542969 L 27.394531 28.882812 C 27.140625 28.765625 26.941406 28.589844 26.789062 28.351562 C 26.640625 28.117188 26.566406 27.855469 26.566406 27.574219 C 26.566406 26.785156 27.195312 26.140625 27.972656 26.140625 C 28.25 26.140625 28.503906 26.21875 28.734375 26.371094 C 28.96875 26.523438 29.140625 26.730469 29.253906 26.988281 L 30.886719 25.324219 C 30.21875 24.425781 29.160156 23.847656 27.972656 23.847656 Z M 27.972656 23.847656 " fill-opacity="1" fill-rule="nonzero"/><g clip-path="url(#id2)"><path fill="#5f6368" d="M 13.382812 38.53125 C 12.613281 38.53125 11.953125 38.253906 11.398438 37.699219 C 10.839844 37.144531 10.5625 36.480469 10.5625 35.703125 C 10.5625 34.925781 10.839844 34.257812 11.398438 33.707031 C 11.953125 33.152344 12.613281 32.875 13.382812 32.875 C 14.125 32.863281 14.757812 33.121094 15.285156 33.652344 L 14.75 34.199219 C 14.367188 33.824219 13.914062 33.640625 13.382812 33.648438 C 12.828125 33.648438 12.355469 33.847656 11.96875 34.246094 C 11.574219 34.648438 11.378906 35.132812 11.390625 35.703125 C 11.390625 36.273438 11.582031 36.757812 11.96875 37.15625 C 12.355469 37.570312 12.824219 37.769531 13.382812 37.757812 C 13.945312 37.757812 14.414062 37.574219 14.785156 37.191406 C 15.003906 36.972656 15.148438 36.636719 15.199219 36.21875 L 13.382812 36.21875 L 13.382812 35.445312 L 15.9375 35.445312 C 15.964844 35.585938 15.972656 35.742188 15.972656 35.925781 C 15.972656 36.6875 15.753906 37.289062 15.316406 37.734375 C 14.820312 38.265625 14.175781 38.527344 13.378906 38.527344 Z M 19.320312 38.015625 C 18.972656 38.359375 18.546875 38.53125 18.046875 38.53125 C 17.542969 38.53125 17.121094 38.355469 16.773438 38.015625 C 16.425781 37.671875 16.25 37.234375 16.25 36.714844 C 16.25 36.195312 16.425781 35.761719 16.773438 35.414062 C 17.121094 35.066406 17.542969 34.898438 18.046875 34.898438 C 18.546875 34.898438 18.972656 35.070312 19.320312 35.414062 C 19.667969 35.757812 19.839844 36.195312 19.839844 36.714844 C 19.839844 37.230469 19.667969 37.667969 19.320312 38.015625 Z M 17.332031 37.503906 C 17.527344 37.714844 17.761719 37.820312 18.046875 37.816406 C 18.320312 37.816406 18.558594 37.714844 18.757812 37.503906 C 18.957031 37.292969 19.054688 37.03125 19.054688 36.714844 C 19.054688 36.390625 18.957031 36.128906 18.761719 35.917969 C 18.5625 35.710938 18.328125 35.609375 18.046875 35.609375 C 17.761719 35.605469 17.523438 35.707031 17.332031 35.917969 C 17.132812 36.125 17.035156 36.390625 17.035156 36.714844 C 17.035156 37.03125 17.136719 37.292969 17.332031 37.503906 Z M 23.234375 38.015625 C 22.886719 38.359375 22.460938 38.53125 21.960938 38.53125 C 21.460938 38.53125 21.035156 38.355469 20.6875 38.015625 C 20.339844 37.671875 20.167969 37.234375 20.167969 36.714844 C 20.167969 36.195312 20.339844 35.761719 20.6875 35.414062 C 21.035156 35.066406 21.460938 34.898438 21.960938 34.898438 C 22.460938 34.898438 22.886719 35.070312 23.234375 35.414062 C 23.582031 35.757812 23.757812 36.195312 23.757812 36.714844 C 23.757812 37.230469 23.582031 37.667969 23.234375 38.015625 Z M 21.25 37.503906 C 21.441406 37.714844 21.679688 37.820312 21.960938 37.816406 C 22.238281 37.816406 22.476562 37.714844 22.671875 37.503906 C 22.871094 37.292969 22.972656 37.03125 22.972656 36.714844 C 22.972656 36.390625 22.875 36.128906 22.675781 35.917969 C 22.480469 35.710938 22.242188 35.609375 21.960938 35.609375 C 21.679688 35.605469 21.441406 35.707031 21.246094 35.917969 C 21.050781 36.125 20.953125 36.390625 20.953125 36.714844 C 20.953125 37.03125 21.050781 37.292969 21.25 37.503906 Z M 25.808594 40.171875 C 25.414062 40.171875 25.078125 40.0625 24.808594 39.84375 C 24.535156 39.628906 24.34375 39.378906 24.226562 39.09375 L 24.910156 38.804688 C 24.980469 38.980469 25.089844 39.128906 25.246094 39.257812 C 25.40625 39.386719 25.589844 39.453125 25.808594 39.453125 C 26.109375 39.453125 26.34375 39.359375 26.511719 39.175781 C 26.679688 38.992188 26.765625 38.726562 26.765625 38.382812 L 26.765625 38.125 L 26.738281 38.125 C 26.519531 38.398438 26.203125 38.539062 25.796875 38.539062 C 25.339844 38.539062 24.941406 38.359375 24.597656 38.007812 C 24.246094 37.652344 24.074219 37.226562 24.082031 36.722656 C 24.074219 36.21875 24.246094 35.785156 24.597656 35.429688 C 24.941406 35.074219 25.339844 34.894531 25.796875 34.894531 C 26 34.894531 26.183594 34.933594 26.347656 35.011719 C 26.511719 35.089844 26.644531 35.1875 26.738281 35.300781 L 26.765625 35.300781 L 26.765625 35.007812 L 27.511719 35.007812 L 27.511719 38.28125 C 27.511719 38.914062 27.351562 39.390625 27.03125 39.707031 C 26.714844 40.019531 26.308594 40.179688 25.808594 40.179688 Z M 25.863281 37.816406 C 26.140625 37.824219 26.367188 37.71875 26.546875 37.503906 C 26.726562 37.292969 26.820312 37.035156 26.820312 36.71875 C 26.820312 36.402344 26.726562 36.136719 26.546875 35.925781 C 26.367188 35.710938 26.140625 35.605469 25.863281 35.609375 C 25.589844 35.609375 25.351562 35.714844 25.160156 35.925781 C 24.964844 36.136719 24.867188 36.402344 24.867188 36.71875 C 24.867188 37.03125 24.964844 37.292969 25.160156 37.503906 C 25.355469 37.714844 25.589844 37.816406 25.863281 37.816406 Z M 28.839844 33.066406 L 28.839844 38.421875 L 28.050781 38.421875 L 28.050781 33.066406 Z M 30.992188 38.53125 C 30.484375 38.53125 30.0625 38.355469 29.726562 38.007812 C 29.386719 37.65625 29.214844 37.222656 29.214844 36.710938 C 29.214844 36.175781 29.378906 35.738281 29.707031 35.398438 C 30.03125 35.050781 30.429688 34.878906 30.902344 34.886719 C 31.121094 34.886719 31.320312 34.925781 31.507812 35.007812 C 31.679688 35.078125 31.832031 35.183594 31.96875 35.316406 C 32.078125 35.429688 32.175781 35.554688 32.257812 35.6875 C 32.328125 35.800781 32.386719 35.921875 32.433594 36.046875 L 32.515625 36.253906 L 30.125 37.261719 C 30.308594 37.628906 30.597656 37.8125 30.992188 37.8125 C 31.355469 37.8125 31.648438 37.644531 31.875 37.308594 L 32.484375 37.726562 C 32.347656 37.929688 32.15625 38.117188 31.90625 38.285156 C 31.660156 38.449219 31.351562 38.53125 30.992188 38.53125 Z M 29.996094 36.65625 L 31.59375 35.976562 C 31.546875 35.863281 31.464844 35.769531 31.339844 35.699219 C 31.210938 35.625 31.070312 35.589844 30.925781 35.59375 C 30.695312 35.59375 30.480469 35.6875 30.277344 35.882812 C 30.078125 36.074219 29.980469 36.332031 29.988281 36.65625 Z M 36.644531 38.53125 C 35.929688 38.53125 35.332031 38.285156 34.847656 37.792969 C 34.363281 37.300781 34.121094 36.6875 34.121094 35.949219 C 34.121094 35.214844 34.363281 34.597656 34.847656 34.109375 C 35.332031 33.617188 35.929688 33.367188 36.644531 33.367188 C 37.375 33.367188 37.96875 33.636719 38.425781 34.175781 L 37.992188 34.605469 C 37.664062 34.183594 37.210938 33.976562 36.644531 33.976562 C 36.113281 33.976562 35.667969 34.15625 35.300781 34.523438 C 34.933594 34.886719 34.753906 35.359375 34.753906 35.949219 C 34.753906 36.539062 34.9375 37.015625 35.300781 37.378906 C 35.664062 37.742188 36.109375 37.925781 36.644531 37.925781 C 37.226562 37.925781 37.722656 37.683594 38.128906 37.207031 L 38.5625 37.648438 C 38.332031 37.929688 38.054688 38.144531 37.730469 38.292969 C 37.382812 38.457031 37.019531 38.535156 36.640625 38.53125 Z M 39.746094 38.421875 L 39.121094 38.421875 L 39.121094 33.480469 L 39.746094 33.480469 Z M 40.761719 35.445312 C 41.082031 35.101562 41.488281 34.929688 41.988281 34.929688 C 42.492188 34.929688 42.894531 35.101562 43.214844 35.445312 C 43.535156 35.789062 43.695312 36.21875 43.695312 36.730469 C 43.695312 37.242188 43.539062 37.675781 43.214844 38.019531 C 42.894531 38.363281 42.492188 38.53125 41.988281 38.53125 C 41.488281 38.53125 41.082031 38.363281 40.761719 38.019531 C 40.441406 37.675781 40.28125 37.242188 40.28125 36.730469 C 40.28125 36.21875 40.441406 35.789062 40.761719 35.445312 Z M 41.226562 37.617188 C 41.445312 37.839844 41.695312 37.953125 41.988281 37.953125 C 42.28125 37.953125 42.53125 37.839844 42.75 37.617188 C 42.96875 37.394531 43.070312 37.097656 43.070312 36.730469 C 43.070312 36.363281 42.964844 36.066406 42.75 35.84375 C 42.535156 35.621094 42.28125 35.511719 41.988281 35.511719 C 41.695312 35.511719 41.445312 35.621094 41.226562 35.84375 C 41.007812 36.066406 40.90625 36.363281 40.90625 36.730469 C 40.90625 37.097656 41.011719 37.394531 41.226562 37.617188 Z M 47.144531 38.421875 L 46.546875 38.421875 L 46.546875 37.953125 L 46.519531 37.953125 C 46.425781 38.113281 46.28125 38.25 46.089844 38.359375 C 45.894531 38.464844 45.6875 38.527344 45.472656 38.527344 C 45.054688 38.527344 44.742188 38.398438 44.527344 38.140625 C 44.3125 37.882812 44.203125 37.539062 44.203125 37.105469 L 44.203125 35.035156 L 44.828125 35.035156 L 44.828125 37.003906 C 44.828125 37.632812 45.101562 37.949219 45.648438 37.949219 C 45.914062 37.953125 46.121094 37.847656 46.277344 37.628906 C 46.445312 37.417969 46.527344 37.171875 46.523438 36.898438 L 46.523438 35.035156 L 47.144531 35.035156 Z M 49.257812 38.53125 C 48.828125 38.53125 48.457031 38.359375 48.148438 38.011719 C 47.835938 37.667969 47.679688 37.242188 47.679688 36.730469 C 47.679688 36.21875 47.835938 35.789062 48.148438 35.445312 C 48.457031 35.101562 48.828125 34.929688 49.257812 34.929688 C 49.511719 34.929688 49.738281 34.984375 49.941406 35.09375 C 50.140625 35.203125 50.292969 35.339844 50.390625 35.507812 L 50.417969 35.507812 L 50.390625 35.039062 L 50.390625 33.480469 L 51.015625 33.480469 L 51.015625 38.421875 L 50.417969 38.421875 L 50.417969 37.953125 L 50.390625 37.953125 C 50.292969 38.117188 50.140625 38.253906 49.941406 38.367188 C 49.738281 38.476562 49.511719 38.53125 49.257812 38.53125 Z M 49.359375 37.949219 C 49.660156 37.957031 49.90625 37.84375 50.109375 37.621094 C 50.316406 37.398438 50.417969 37.101562 50.417969 36.734375 C 50.417969 36.363281 50.316406 36.0625 50.109375 35.847656 C 49.90625 35.621094 49.660156 35.511719 49.359375 35.515625 C 49.070312 35.515625 48.820312 35.628906 48.613281 35.851562 C 48.40625 36.074219 48.304688 36.371094 48.304688 36.738281 C 48.304688 37.105469 48.40625 37.402344 48.613281 37.625 C 48.8125 37.847656 49.0625 37.960938 49.359375 37.957031 Z M 49.359375 37.949219 " fill-opacity="1" fill-rule="nonzero"/></g></svg>